<?xml version="1.0" encoding="UTF-8"?><svg xmlns="http://www.w3.org/2000/svg" xmlns:xlink="http://www.w3.org/1999/xlink" contentScriptType="text/ecmascript" width="375" zoomAndPan="magnify" contentStyleType="text/css" viewBox="0 0 375 374.999991" height="374.999991" preserveAspectRatio="xMidYMid meet" version="1.0"><defs><clipPath id="clip-0"><path d="M 38 3.09375 L 361 3.09375 L 361 179 L 38 179 Z M 38 3.09375 " clip-rule="nonzero"/></clipPath><clipPath id="clip-1"><path d="M 14 195 L 337 195 L 337 371.34375 L 14 371.34375 Z M 14 195 " clip-rule="nonzero"/></clipPath></defs><path fill="rgb(54.899597%, 32.159424%, 100%)" d="M 32.554688 168.78125 L 14.535156 63.4375 L 114.875 100.519531 L 32.554688 168.78125 L 14.535156 63.4375 L 114.875 100.519531 L 32.554688 168.78125 " fill-opacity="1" fill-rule="nonzero"/><g clip-path="url(#clip-0)"><path fill="rgb(54.899597%, 32.159424%, 100%)" d="M 360.230469 178.664062 C 360.230469 178.664062 360.097656 177.050781 359.851562 174.007812 C 359.675781 170.964844 359.117188 166.539062 358.261719 160.972656 C 358.003906 159.585938 357.730469 158.121094 357.445312 156.585938 C 357.308594 155.824219 357.160156 155.039062 357.023438 154.238281 C 356.832031 153.449219 356.644531 152.636719 356.4375 151.804688 C 356.042969 150.148438 355.652344 148.4375 355.230469 146.660156 C 354.710938 144.910156 354.195312 143.089844 353.652344 141.203125 C 351.382812 133.734375 348.324219 125.464844 344.121094 116.910156 C 339.90625 108.367188 334.5625 99.527344 327.96875 90.960938 C 321.375 82.40625 313.546875 74.109375 304.640625 66.601562 C 300.222656 62.8125 295.421875 59.351562 290.515625 55.996094 C 285.5 52.777344 280.359375 49.65625 274.949219 46.992188 C 264.167969 41.5625 252.664062 37.3125 240.863281 34.679688 C 229.078125 32.011719 217.085938 30.679688 205.328125 30.902344 C 203.859375 30.957031 202.390625 31.003906 200.933594 31.058594 L 198.746094 31.128906 L 198.609375 31.132812 C 199.464844 31.121094 198.773438 31.136719 198.921875 31.136719 L 198.625 31.164062 L 198.027344 31.21875 L 196.84375 31.316406 C 195.265625 31.457031 193.6875 31.59375 192.113281 31.730469 L 189.757812 31.9375 L 188.578125 32.039062 C 188.210938 32.082031 187.898438 32.148438 187.558594 32.203125 C 184.878906 32.644531 182.214844 33.074219 179.578125 33.507812 C 176.84375 34.125 174.136719 34.734375 171.445312 35.34375 C 160.761719 38.058594 150.847656 41.875 141.945312 46.328125 C 140.84375 46.898438 139.742188 47.46875 138.65625 48.027344 C 137.566406 48.597656 136.464844 49.113281 135.445312 49.765625 C 133.378906 51 131.355469 52.222656 129.339844 53.417969 C 127.398438 54.679688 125.535156 56.023438 123.671875 57.273438 C 121.796875 58.480469 120.082031 59.878906 118.398438 61.210938 C 117.539062 61.875 116.710938 62.527344 115.882812 63.164062 C 115.460938 63.492188 115.054688 63.804688 114.644531 64.128906 L 113.488281 65.160156 C 111.953125 66.519531 110.457031 67.851562 109.003906 69.140625 C 107.519531 70.402344 106.257812 71.84375 104.9375 73.117188 C 104.285156 73.769531 103.644531 74.410156 103.007812 75.035156 C 102.367188 75.65625 101.757812 76.296875 101.199219 76.960938 C 96.550781 82.082031 92.824219 86.792969 89.96875 90.796875 C 88.582031 92.835938 87.34375 94.640625 86.257812 96.214844 C 85.277344 97.84375 84.449219 99.230469 83.769531 100.359375 C 82.410156 102.613281 81.703125 103.804688 81.703125 103.804688 L 81.144531 104.714844 C 74.660156 115.511719 60.617188 119.015625 49.808594 112.523438 C 38.988281 106.035156 35.492188 92.007812 41.992188 81.210938 C 42.398438 80.519531 42.875 79.828125 43.351562 79.1875 C 43.351562 79.1875 44.464844 77.707031 46.574219 74.9375 C 47.632812 73.566406 48.910156 71.855469 50.460938 69.886719 C 52.105469 67.984375 53.980469 65.800781 56.089844 63.355469 C 60.386719 58.5625 65.878906 52.980469 72.59375 47.101562 C 73.410156 46.34375 74.28125 45.609375 75.191406 44.902344 C 76.089844 44.183594 77 43.449219 77.925781 42.714844 C 79.785156 41.265625 81.621094 39.660156 83.675781 38.234375 C 85.714844 36.796875 87.808594 35.316406 89.941406 33.808594 C 90.472656 33.441406 91.003906 33.0625 91.546875 32.679688 C 92.117188 32.332031 92.675781 31.980469 93.246094 31.625 C 94.386719 30.925781 95.53125 30.214844 96.683594 29.496094 C 99.011719 28.070312 101.347656 26.582031 103.890625 25.296875 C 106.394531 23.972656 108.90625 22.570312 111.53125 21.265625 C 114.195312 20.050781 116.886719 18.816406 119.632812 17.558594 C 120.992188 16.90625 122.421875 16.386719 123.863281 15.835938 C 125.289062 15.289062 126.71875 14.738281 128.171875 14.179688 C 139.796875 9.898438 152.441406 6.59375 165.683594 4.753906 C 169.011719 4.386719 172.359375 4.019531 175.714844 3.640625 C 179.238281 3.476562 182.773438 3.304688 186.332031 3.136719 C 186.769531 3.125 187.246094 3.09375 187.652344 3.09375 L 188.820312 3.121094 L 191.1875 3.175781 C 192.765625 3.210938 194.355469 3.242188 195.933594 3.28125 L 198.773438 3.339844 L 201.371094 3.527344 C 203.082031 3.65625 204.808594 3.789062 206.535156 3.921875 C 220.335938 5.191406 234.121094 8.277344 247.269531 12.828125 C 260.457031 17.339844 272.910156 23.601562 284.246094 30.976562 C 289.957031 34.609375 295.273438 38.699219 300.386719 42.839844 C 305.386719 47.128906 310.199219 51.488281 314.550781 56.144531 C 323.335938 65.367188 330.714844 75.167969 336.710938 85.027344 C 342.695312 94.886719 347.277344 104.769531 350.660156 114.125 C 354.058594 123.507812 356.261719 132.347656 357.742188 140.222656 C 358.085938 142.191406 358.410156 144.109375 358.738281 145.941406 C 358.953125 147.800781 359.171875 149.59375 359.390625 151.304688 C 359.496094 152.160156 359.59375 153 359.703125 153.828125 C 359.757812 154.644531 359.824219 155.460938 359.878906 156.246094 C 359.988281 157.820312 360.097656 159.328125 360.203125 160.753906 C 360.449219 166.484375 360.519531 170.953125 360.367188 173.992188 C 360.273438 177.035156 360.230469 178.664062 360.230469 178.664062 " fill-opacity="1" fill-rule="nonzero"/></g><path fill="rgb(54.899597%, 32.159424%, 100%)" d="M 342.203125 205.671875 L 360.230469 311 L 259.882812 273.917969 L 342.203125 205.671875 L 360.230469 311 L 259.882812 273.917969 L 342.203125 205.671875 " fill-opacity="1" fill-rule="nonzero"/><g clip-path="url(#clip-1)"><path fill="rgb(54.899597%, 32.159424%, 100%)" d="M 14.535156 195.773438 C 14.535156 195.773438 14.664062 197.390625 14.90625 200.429688 C 15.085938 203.472656 15.644531 207.914062 16.503906 213.464844 C 16.761719 214.867188 17.027344 216.316406 17.3125 217.851562 C 17.449219 218.625 17.601562 219.402344 17.75 220.203125 C 17.933594 221.003906 18.125 221.804688 18.316406 222.632812 C 18.710938 224.273438 19.117188 226 19.539062 227.777344 C 20.046875 229.542969 20.566406 231.363281 21.109375 233.238281 C 23.382812 240.707031 26.4375 248.960938 30.648438 257.527344 C 34.855469 266.070312 40.195312 274.910156 46.789062 283.476562 C 53.382812 292.046875 61.214844 300.328125 70.121094 307.835938 C 74.539062 311.625 79.339844 315.089844 84.246094 318.457031 C 89.261719 321.660156 94.402344 324.785156 99.828125 327.445312 C 110.59375 332.875 122.082031 337.125 133.894531 339.761719 C 145.683594 342.4375 157.675781 343.765625 169.433594 343.535156 C 170.902344 343.480469 172.359375 343.425781 173.824219 343.386719 L 176 343.304688 L 176.152344 343.304688 C 175.292969 343.316406 176 343.304688 175.839844 343.304688 L 176.734375 343.222656 L 177.917969 343.113281 L 182.648438 342.707031 L 185 342.503906 L 186.171875 342.394531 C 186.550781 342.367188 186.863281 342.285156 187.203125 342.230469 C 189.882812 341.796875 192.53125 341.363281 195.183594 340.929688 C 197.917969 340.316406 200.621094 339.707031 203.3125 339.09375 C 214 336.378906 223.910156 332.5625 232.816406 328.109375 C 233.917969 327.539062 235.019531 326.96875 236.105469 326.414062 C 237.195312 325.855469 238.296875 325.328125 239.316406 324.675781 C 241.382812 323.4375 243.40625 322.21875 245.417969 321.023438 C 247.375 319.757812 249.226562 318.414062 251.089844 317.167969 C 252.964844 315.957031 254.675781 314.558594 256.363281 313.226562 C 257.207031 312.5625 258.050781 311.910156 258.878906 311.273438 C 259.300781 310.945312 259.707031 310.621094 260.117188 310.308594 L 261.269531 309.277344 C 262.808594 307.917969 264.304688 306.589844 265.769531 305.296875 C 267.238281 304.023438 268.503906 302.597656 269.824219 301.320312 C 270.476562 300.667969 271.128906 300.03125 271.753906 299.390625 C 272.390625 298.78125 273.003906 298.144531 273.5625 297.476562 C 278.210938 292.359375 281.9375 287.644531 284.792969 283.640625 C 286.179688 281.605469 287.429688 279.796875 288.503906 278.222656 C 289.480469 276.59375 290.3125 275.195312 290.992188 274.082031 C 292.335938 271.828125 293.058594 270.632812 293.058594 270.632812 L 293.601562 269.722656 C 300.113281 258.929688 314.144531 255.4375 324.953125 261.914062 C 335.773438 268.40625 339.269531 282.417969 332.78125 293.226562 C 332.347656 293.917969 331.886719 294.613281 331.410156 295.25 C 331.410156 295.25 330.28125 296.730469 328.1875 299.5 C 327.128906 300.871094 325.863281 302.582031 324.300781 304.550781 C 322.667969 306.453125 320.777344 308.640625 318.671875 311.082031 C 314.375 315.890625 308.882812 321.457031 302.167969 327.335938 C 301.351562 328.109375 300.480469 328.832031 299.570312 329.535156 C 298.671875 330.253906 297.761719 330.988281 296.835938 331.722656 C 294.960938 333.175781 293.140625 334.777344 291.085938 336.203125 C 289.058594 337.640625 286.964844 339.121094 284.820312 340.628906 C 284.289062 341.011719 283.746094 341.375 283.214844 341.757812 C 282.65625 342.109375 282.085938 342.460938 281.515625 342.816406 C 280.386719 343.507812 279.230469 344.226562 278.074219 344.933594 C 275.75 346.375 273.410156 347.855469 270.871094 349.144531 C 268.367188 350.460938 265.851562 351.871094 263.230469 353.175781 C 260.578125 354.386719 257.871094 355.621094 255.125 356.882812 C 253.765625 357.535156 252.324219 358.050781 250.898438 358.609375 C 249.46875 359.152344 248.042969 359.695312 246.589844 360.265625 C 234.976562 364.542969 222.320312 367.839844 209.078125 369.6875 C 205.761719 370.054688 202.402344 370.421875 199.046875 370.800781 C 195.523438 370.964844 191.988281 371.128906 188.425781 371.304688 C 187.992188 371.316406 187.515625 371.34375 187.109375 371.34375 L 185.9375 371.316406 L 183.574219 371.261719 C 181.996094 371.234375 180.417969 371.195312 178.828125 371.15625 L 175.972656 371.101562 L 173.390625 370.910156 C 171.679688 370.789062 169.953125 370.652344 168.222656 370.515625 C 154.425781 369.253906 140.640625 366.15625 127.492188 361.609375 C 114.320312 357.101562 101.851562 350.839844 90.511719 343.46875 C 84.804688 339.828125 79.488281 335.742188 74.375 331.601562 C 69.371094 327.308594 64.558594 322.949219 60.210938 318.292969 C 51.441406 309.085938 44.03125 299.269531 38.0625 289.410156 C 32.058594 279.554688 27.488281 269.667969 24.089844 260.3125 C 20.695312 250.929688 18.503906 242.089844 17.019531 234.214844 C 16.679688 232.246094 16.351562 230.332031 16.03125 228.5 C 15.804688 226.636719 15.582031 224.84375 15.375 223.132812 C 15.269531 222.277344 15.164062 221.4375 15.0625 220.621094 C 14.996094 219.792969 14.945312 218.980469 14.882812 218.191406 C 14.769531 216.617188 14.664062 215.109375 14.554688 213.683594 C 14.308594 207.96875 14.242188 203.488281 14.390625 200.445312 C 14.484375 197.402344 14.535156 195.773438 14.535156 195.773438 " fill-opacity="1" fill-rule="nonzero"/></g></svg>